<svg width="516" height="193" viewBox="0 0 516 193" fill="none" xmlns="http://www.w3.org/2000/svg">
<g clip-path="url(#clip0_1006_3540)">
<path fill-rule="evenodd" clip-rule="evenodd" d="M101.059 136.832C82.1417 136.832 65.9123 125.323 58.991 108.925L42.6367 116.103C52.3225 138.788 74.8342 154.686 101.059 154.686C127.13 154.686 149.531 138.974 159.309 116.503L142.957 109.323C135.942 125.509 119.823 136.832 101.059 136.832Z" fill="white"/>
<path d="M88.0408 57.4206L97.5362 29.9857C98.602 26.9065 103.004 26.9371 104.026 30.0309L113.064 57.3862C113.38 58.3425 114.107 59.1105 115.05 59.4829L137.419 68.3168C140.244 69.4327 140.309 73.3756 137.521 74.5814L114.951 84.3436C114.067 84.7262 113.386 85.4613 113.077 86.3678L104.017 112.95C102.976 116.003 98.6323 116.034 97.5474 112.996L88.0264 86.3334C87.71 85.4473 87.0372 84.731 86.1684 84.3552L63.572 74.5814C60.7843 73.3756 60.8485 69.4327 63.674 68.3168L86.0698 59.4722C86.997 59.106 87.7168 58.3567 88.0408 57.4206Z" fill="white"/>
<path d="M457.498 141.054V55.0283H475.353V141.054H457.498Z" fill="white"/>
<path fill-rule="evenodd" clip-rule="evenodd" d="M391.713 142.841C385.545 142.841 380.242 141.705 375.806 139.433C371.477 137.052 368.177 133.806 365.905 129.694C363.632 125.582 362.496 120.983 362.496 115.897C362.496 107.349 365.039 101.018 370.125 96.9064C375.211 92.6863 382.677 90.5762 392.524 90.5762H419.306V85.8691C419.306 79.3766 417.845 74.94 414.923 72.5594C412.11 70.0706 407.619 68.8262 401.451 68.8262C395.933 68.8262 391.875 69.6919 389.278 71.4232C386.681 73.1546 385.166 75.5352 384.733 78.565H367.365C367.69 73.5874 369.259 69.205 372.073 65.4176C374.886 61.6303 378.836 58.6546 383.921 56.4904C389.115 54.3262 395.229 53.2441 402.263 53.2441C409.296 53.2441 415.41 54.3262 420.604 56.4904C425.907 58.6546 429.964 62.0632 432.778 66.7161C435.699 71.2609 437.16 77.3206 437.16 84.8953V119.143V141.049H420.934V128.233H420.929C418.873 132.237 415.302 135.699 410.216 138.621C405.239 141.434 399.071 142.841 391.713 142.841ZM407.782 125.149C404.427 126.556 400.694 127.259 396.582 127.259C391.063 127.259 387.005 126.177 384.408 124.013C381.92 121.849 380.675 118.981 380.675 115.41C380.675 111.623 382.028 108.755 384.733 106.808C387.546 104.86 391.226 103.886 395.77 103.886H419.306V108.593C419.306 112.597 418.224 116.005 416.06 118.819C414.004 121.632 411.244 123.742 407.782 125.149Z" fill="white"/>
<path d="M312.979 142.841C305.404 142.841 298.425 141.272 292.04 138.134C285.656 134.888 280.516 130.018 276.621 123.526C272.725 117.033 270.777 108.809 270.777 98.8542V95.6079C270.777 86.0856 272.617 78.1863 276.296 71.9102C280.083 65.6341 285.061 60.9811 291.229 57.9512C297.397 54.8132 304.106 53.2441 311.356 53.2441C324.449 53.2441 334.458 56.7609 341.384 63.7945C348.417 70.8281 351.934 80.8915 351.934 93.9848V103.074H288.956C289.173 108.918 290.417 113.625 292.69 117.196C294.962 120.767 297.884 123.364 301.455 124.987C305.025 126.502 308.867 127.259 312.979 127.259C319.147 127.259 323.637 126.285 326.451 124.337C329.372 122.39 331.374 119.847 332.456 116.709H350.311C348.58 125.257 344.305 131.75 337.488 136.186C330.779 140.623 322.609 142.841 312.979 142.841ZM312.167 68.8262C308.164 68.8262 304.43 69.5296 300.968 70.9363C297.505 72.343 294.692 74.5613 292.527 77.5911C290.363 80.621 289.173 84.6788 288.956 89.7647H334.08C333.971 84.3542 332.943 80.1341 330.996 77.1042C329.048 74.0744 326.451 71.9643 323.205 70.774C319.958 69.4755 316.279 68.8262 312.167 68.8262Z" fill="white"/>
<path d="M216.313 141.054L179.793 55.0283H199.271L225.565 121.577L249.263 55.0283H267.442L234.168 141.054H216.313Z" fill="white"/>
<path d="M457.514 19.8916H475.373V41.3313H457.514V19.8916Z" fill="white"/>
</g>
<defs>
<clipPath id="clip0_1006_3540">
</clipPath>
</defs>
</svg>
