<svg width="1200" height="182" viewBox="0 0 1200 182" fill="none" xmlns="http://www.w3.org/2000/svg">
<path fill-rule="evenodd" clip-rule="evenodd" d="M101.059 136.832C82.1417 136.832 65.9123 125.323 58.991 108.925L42.6367 116.103C52.3225 138.788 74.8342 154.686 101.059 154.686C127.13 154.686 149.531 138.974 159.309 116.503L142.957 109.323C135.942 125.509 119.823 136.832 101.059 136.832Z" fill="white"/>
<path d="M88.0408 57.4206L97.5362 29.9857C98.602 26.9065 103.004 26.9371 104.026 30.0309L113.064 57.3862C113.38 58.3425 114.107 59.1105 115.05 59.4829L137.419 68.3168C140.244 69.4327 140.309 73.3756 137.521 74.5814L114.951 84.3436C114.067 84.7262 113.386 85.4613 113.077 86.3678L104.017 112.95C102.976 116.003 98.6323 116.034 97.5474 112.996L88.0264 86.3334C87.71 85.4473 87.0372 84.731 86.1684 84.3552L63.572 74.5814C60.7843 73.3756 60.8485 69.4327 63.674 68.3168L86.0698 59.4722C86.997 59.106 87.7168 58.3567 88.0408 57.4206Z" fill="white"/>
<path d="M457.498 141.054V55.0283H475.353V141.054H457.498Z" fill="white"/>
<path fill-rule="evenodd" clip-rule="evenodd" d="M391.713 142.841C385.545 142.841 380.242 141.705 375.806 139.433C371.477 137.052 368.177 133.806 365.905 129.694C363.632 125.582 362.496 120.983 362.496 115.897C362.496 107.349 365.039 101.018 370.125 96.9064C375.211 92.6863 382.677 90.5762 392.524 90.5762H419.306V85.8691C419.306 79.3766 417.845 74.94 414.923 72.5594C412.11 70.0706 407.619 68.8262 401.451 68.8262C395.933 68.8262 391.875 69.6919 389.278 71.4232C386.681 73.1546 385.166 75.5352 384.733 78.565H367.365C367.69 73.5874 369.259 69.205 372.073 65.4176C374.886 61.6303 378.836 58.6546 383.921 56.4904C389.115 54.3262 395.229 53.2441 402.263 53.2441C409.296 53.2441 415.41 54.3262 420.604 56.4904C425.907 58.6546 429.964 62.0632 432.778 66.7161C435.699 71.2609 437.16 77.3206 437.16 84.8953V119.143V141.049H420.934V128.233H420.929C418.873 132.237 415.302 135.699 410.216 138.621C405.239 141.434 399.071 142.841 391.713 142.841ZM407.782 125.149C404.427 126.556 400.694 127.259 396.582 127.259C391.063 127.259 387.005 126.177 384.408 124.013C381.92 121.849 380.675 118.981 380.675 115.41C380.675 111.623 382.028 108.755 384.733 106.808C387.546 104.86 391.226 103.886 395.77 103.886H419.306V108.593C419.306 112.597 418.224 116.005 416.06 118.819C414.004 121.632 411.244 123.742 407.782 125.149Z" fill="white"/>
<path d="M312.979 142.841C305.404 142.841 298.425 141.272 292.04 138.134C285.656 134.888 280.516 130.018 276.621 123.526C272.725 117.033 270.777 108.809 270.777 98.8542V95.6079C270.777 86.0856 272.617 78.1863 276.296 71.9102C280.083 65.6341 285.061 60.9811 291.229 57.9512C297.397 54.8132 304.106 53.2441 311.356 53.2441C324.449 53.2441 334.458 56.7609 341.384 63.7945C348.417 70.8281 351.934 80.8915 351.934 93.9848V103.074H288.956C289.173 108.918 290.417 113.625 292.69 117.196C294.962 120.767 297.884 123.364 301.455 124.987C305.025 126.502 308.867 127.259 312.979 127.259C319.147 127.259 323.637 126.285 326.451 124.337C329.372 122.39 331.374 119.847 332.456 116.709H350.311C348.58 125.257 344.305 131.75 337.488 136.186C330.779 140.623 322.609 142.841 312.979 142.841ZM312.167 68.8262C308.164 68.8262 304.43 69.5296 300.968 70.9363C297.505 72.343 294.692 74.5613 292.527 77.5911C290.363 80.621 289.173 84.6788 288.956 89.7647H334.08C333.971 84.3542 332.943 80.1341 330.996 77.1042C329.048 74.0744 326.451 71.9643 323.205 70.774C319.958 69.4755 316.279 68.8262 312.167 68.8262Z" fill="white"/>
<path d="M216.313 141.054L179.793 55.0283H199.271L225.565 121.577L249.263 55.0283H267.442L234.168 141.054H216.313Z" fill="white"/>
<path d="M457.514 19.8916H475.373V41.3313H457.514V19.8916Z" fill="white"/>
<path d="M522.254 124V72.2487H530.013V111.483L556.73 72.2487H564.196V124H556.51V85.1316L529.647 124H522.254ZM576.366 124V72.2487H584.125V111.483L610.843 72.2487H618.309V124H610.623V85.1316L583.759 124H576.366ZM649.101 124V85.4244H682.114V124H674.574V92.1587H656.641V124H649.101ZM708.549 124.439C704.548 124.439 701.156 123.634 698.375 122.024C695.593 120.364 693.47 118.047 692.007 115.07C690.591 112.093 689.884 108.653 689.884 104.749C689.884 100.796 690.591 97.3558 692.007 94.4278C693.47 91.4511 695.593 89.1331 698.375 87.474C701.156 85.766 704.572 84.912 708.623 84.912C712.624 84.912 716.016 85.766 718.797 87.474C721.579 89.1331 723.677 91.4511 725.092 94.4278C726.507 97.4046 727.215 100.869 727.215 104.822C727.215 108.677 726.483 112.093 725.019 115.07C723.604 118.047 721.505 120.364 718.724 122.024C715.991 123.634 712.6 124.439 708.549 124.439ZM708.549 117.705C711.185 117.705 713.307 117.119 714.918 115.948C716.577 114.777 717.797 113.215 718.578 111.263C719.358 109.312 719.749 107.164 719.749 104.822C719.749 102.48 719.358 100.333 718.578 98.3805C717.797 96.3798 716.577 94.7938 714.918 93.6226C713.307 92.4027 711.185 91.7927 708.549 91.7927C705.963 91.7927 703.84 92.4027 702.181 93.6226C700.522 94.7938 699.302 96.3554 698.521 98.3073C697.789 100.259 697.423 102.431 697.423 104.822C697.423 107.164 697.789 109.312 698.521 111.263C699.302 113.215 700.522 114.777 702.181 115.948C703.84 117.119 705.963 117.705 708.549 117.705ZM730.874 135.492V117.339C732.24 117.339 733.338 116.973 734.168 116.241C734.997 115.509 735.656 114.557 736.144 113.386C736.632 112.215 736.998 110.922 737.242 109.507C737.535 108.043 737.779 106.628 737.974 105.261C738.218 103.065 738.364 100.845 738.413 98.6001C738.511 96.3066 738.56 94.4034 738.56 92.8907C738.608 91.6707 738.633 90.4507 738.633 89.2307C738.633 87.962 738.633 86.6932 738.633 85.4244H767.253V117.339H772.231V135.492H764.838V124H738.267V135.492H730.874ZM742.146 117.339H759.641V92.1587H745.587C745.587 94.0618 745.562 96.1602 745.513 98.4537C745.465 100.747 745.367 102.919 745.221 104.968C745.123 106.14 745.001 107.457 744.855 108.921C744.708 110.385 744.44 111.849 744.049 113.313C743.659 114.777 743.025 116.119 742.146 117.339ZM798.286 124V85.4244H805.826V101.455H812.267L823.027 85.4244H831.665L819.001 103.724L832.397 124H823.613L812.999 108.116H805.826V124H798.286ZM854.017 124.439C850.015 124.439 846.624 123.634 843.842 122.024C841.061 120.364 838.938 118.047 837.474 115.07C836.059 112.093 835.351 108.653 835.351 104.749C835.351 100.796 836.059 97.3558 837.474 94.4278C838.938 91.4511 841.061 89.1331 843.842 87.474C846.624 85.766 850.04 84.912 854.09 84.912C858.092 84.912 861.483 85.766 864.265 87.474C867.046 89.1331 869.145 91.4511 870.56 94.4278C871.975 97.4046 872.683 100.869 872.683 104.822C872.683 108.677 871.951 112.093 870.487 115.07C869.071 118.047 866.973 120.364 864.192 122.024C861.459 123.634 858.067 124.439 854.017 124.439ZM854.017 117.705C856.652 117.705 858.775 117.119 860.385 115.948C862.044 114.777 863.264 113.215 864.045 111.263C864.826 109.312 865.216 107.164 865.216 104.822C865.216 102.48 864.826 100.333 864.045 98.3805C863.264 96.3798 862.044 94.7938 860.385 93.6226C858.775 92.4027 856.652 91.7927 854.017 91.7927C851.431 91.7927 849.308 92.4027 847.649 93.6226C845.99 94.7938 844.77 96.3554 843.989 98.3073C843.257 100.259 842.891 102.431 842.891 104.822C842.891 107.164 843.257 109.312 843.989 111.263C844.77 113.215 845.99 114.777 847.649 115.948C849.308 117.119 851.431 117.705 854.017 117.705ZM880.42 124V85.4244H887.959V101.674H905.747V85.4244H913.286V124H905.747V108.336H887.959V124H880.42ZM931.6 124V92.1587H918.571V85.4244H952.169V92.1587H939.139V124H931.6ZM957.407 138.054V85.4244H964.58L964.946 90.9875C966.313 88.9379 968.118 87.4252 970.363 86.4492C972.608 85.4244 974.999 84.912 977.536 84.912C981.343 84.912 984.49 85.7904 986.979 87.5472C989.468 89.3039 991.322 91.6707 992.542 94.6474C993.762 97.6242 994.372 100.991 994.372 104.749C994.372 108.506 993.738 111.873 992.469 114.85C991.249 117.827 989.346 120.169 986.759 121.877C984.222 123.585 980.977 124.439 977.024 124.439C975.121 124.439 973.413 124.244 971.9 123.854C970.387 123.463 969.07 122.902 967.947 122.17C966.825 121.389 965.825 120.56 964.946 119.681V138.054H957.407ZM976.146 117.705C978.781 117.705 980.879 117.119 982.441 115.948C984.002 114.728 985.125 113.142 985.808 111.19C986.491 109.238 986.833 107.116 986.833 104.822C986.833 102.431 986.467 100.259 985.735 98.3073C985.051 96.3066 983.905 94.7206 982.294 93.5495C980.733 92.3295 978.634 91.7195 975.999 91.7195C973.608 91.7195 971.583 92.3295 969.924 93.5495C968.265 94.7206 966.996 96.3066 966.117 98.3073C965.288 100.308 964.873 102.48 964.873 104.822C964.873 107.213 965.264 109.409 966.044 111.41C966.874 113.362 968.118 114.899 969.777 116.021C971.485 117.144 973.608 117.705 976.146 117.705ZM1019.07 124.439C1015.07 124.439 1011.68 123.634 1008.9 122.024C1006.11 120.364 1003.99 118.047 1002.53 115.07C1001.11 112.093 1000.41 108.653 1000.41 104.749C1000.41 100.796 1001.11 97.3558 1002.53 94.4278C1003.99 91.4511 1006.11 89.1331 1008.9 87.474C1011.68 85.766 1015.09 84.912 1019.14 84.912C1023.15 84.912 1026.54 85.766 1029.32 87.474C1032.1 89.1331 1034.2 91.4511 1035.61 94.4278C1037.03 97.4046 1037.74 100.869 1037.74 104.822C1037.74 108.677 1037 112.093 1035.54 115.07C1034.13 118.047 1032.03 120.364 1029.25 122.024C1026.51 123.634 1023.12 124.439 1019.07 124.439ZM1019.07 117.705C1021.71 117.705 1023.83 117.119 1025.44 115.948C1027.1 114.777 1028.32 113.215 1029.1 111.263C1029.88 109.312 1030.27 107.164 1030.27 104.822C1030.27 102.48 1029.88 100.333 1029.1 98.3805C1028.32 96.3798 1027.1 94.7938 1025.44 93.6226C1023.83 92.4027 1021.71 91.7927 1019.07 91.7927C1016.48 91.7927 1014.36 92.4027 1012.7 93.6226C1011.04 94.7938 1009.82 96.3554 1009.04 98.3073C1008.31 100.259 1007.94 102.431 1007.94 104.822C1007.94 107.164 1008.31 109.312 1009.04 111.263C1009.82 113.215 1011.04 114.777 1012.7 115.948C1014.36 117.119 1016.48 117.705 1019.07 117.705ZM1041.75 124.073V117.339C1042.77 117.339 1043.65 117.119 1044.38 116.68C1045.17 116.192 1045.85 115.509 1046.43 114.631C1047.07 113.655 1047.56 112.288 1047.9 110.531C1048.24 108.775 1048.48 106.945 1048.63 105.042C1048.83 102.748 1048.95 100.479 1049 98.2341C1049.09 95.9894 1049.17 93.7934 1049.22 91.6463C1049.31 89.4991 1049.36 87.4252 1049.36 85.4244H1077.25V124H1069.71V92.1587H1056.54C1056.49 93.769 1056.41 95.4526 1056.32 97.2094C1056.27 98.9661 1056.19 100.723 1056.1 102.48C1056 104.188 1055.88 105.896 1055.73 107.604C1055.63 109.556 1055.36 111.629 1054.92 113.825C1054.53 116.021 1053.78 117.998 1052.66 119.754C1051.53 121.462 1050.14 122.609 1048.48 123.195C1046.87 123.78 1044.63 124.073 1041.75 124.073ZM1103.49 124.439C1099.44 124.439 1096.05 123.61 1093.31 121.95C1090.58 120.291 1088.51 117.998 1087.09 115.07C1085.72 112.093 1085.04 108.677 1085.04 104.822C1085.04 100.918 1085.75 97.4778 1087.16 94.501C1088.63 91.5243 1090.73 89.1819 1093.46 87.474C1096.24 85.766 1099.58 84.912 1103.49 84.912C1106.37 84.912 1108.88 85.4488 1111.03 86.5224C1113.22 87.5472 1115.05 88.9867 1116.52 90.8411C1118.03 92.6467 1119.13 94.6962 1119.81 96.9898C1120.49 99.2833 1120.81 101.699 1120.76 104.236C1120.71 104.773 1120.66 105.286 1120.62 105.774C1120.62 106.262 1120.59 106.774 1120.54 107.311H1092.65C1092.8 109.263 1093.29 111.044 1094.12 112.654C1095 114.265 1096.22 115.558 1097.78 116.534C1099.34 117.461 1101.27 117.925 1103.56 117.925C1104.83 117.925 1106.05 117.778 1107.22 117.485C1108.44 117.144 1109.51 116.631 1110.44 115.948C1111.42 115.216 1112.1 114.289 1112.49 113.167H1120.1C1119.47 115.753 1118.32 117.9 1116.66 119.608C1115.05 121.267 1113.08 122.487 1110.73 123.268C1108.44 124.049 1106.02 124.439 1103.49 124.439ZM1092.8 101.308H1113.3C1113.25 99.4053 1112.81 97.7218 1111.98 96.2578C1111.15 94.745 1110 93.5738 1108.54 92.7443C1107.07 91.8659 1105.32 91.4267 1103.27 91.4267C1101.02 91.4267 1099.14 91.8903 1097.63 92.8175C1096.17 93.7446 1095.02 94.9646 1094.19 96.4774C1093.41 97.9414 1092.95 99.5517 1092.8 101.308ZM1128.54 124V85.4244H1138.2L1150.06 103.87L1161.7 85.4244H1171.21V124H1163.67V94.5742L1151.01 114.777H1148.81L1136.08 94.501V124H1128.54Z" fill="white"/>
</svg>
